<?xml version="1.0" encoding="UTF-8" standalone="no"?>
<svg
   width="500"
   zoomAndPan="magnify"
   viewBox="0 0 375 374.99999"
   height="500"
   preserveAspectRatio="xMidYMid"
   version="1.0"
   id="svg204"
   sodipodi:docname="2.svg"
   inkscape:export-filename="../e8099000/1.svg"
   inkscape:export-xdpi="96"
   inkscape:export-ydpi="96"
   xmlns:inkscape="http://www.inkscape.org/namespaces/inkscape"
   xmlns:sodipodi="http://sodipodi.sourceforge.net/DTD/sodipodi-0.dtd"
   xmlns="http://www.w3.org/2000/svg"
   xmlns:svg="http://www.w3.org/2000/svg">
  <sodipodi:namedview
     id="namedview206"
     pagecolor="#ffffff"
     bordercolor="#000000"
     borderopacity="0.25"
     inkscape:showpageshadow="2"
     inkscape:pageopacity="0.0"
     inkscape:pagecheckerboard="0"
     inkscape:deskcolor="#d1d1d1"
     showgrid="false" />
  <defs
     id="defs166" />
  <g
     id="g986"
     transform="translate(-3.6253965,-5.1985432)">
    <g
       id="g966">
      <g
         fill="#7ed957"
         fill-opacity="0.4"
         id="g178"
         transform="translate(28.874941,20.026495)">
        <g
           transform="translate(43.100084,247.8183)"
           id="g176">
          <g
             id="g174">
            <path
               d="m 9.332031,-131.38672 v 68.492189 H 27.0625 c 6.15625,5.601562 12.316406,11.570312 18.660156,18.105469 6.535156,6.34375 14.929688,14.929687 25.195313,25.378906 C 81.371094,-8.957031 87.714844,-2.613281 89.953125,-0.1875 H 113.46875 L 43.671875,-70.171875 108.80469,-131.38672 H 85.847656 L 27.0625,-75.957031 v -55.429689 z m 0,84.54297 V -0.1875 H 27.0625 v -46.65625 z m 0,0"
               id="path172" />
          </g>
        </g>
      </g>
    </g>
    <g
       fill="#7ed957"
       fill-opacity="1"
       id="g186"
       transform="translate(42.050927,27.173035)">
      <g
         transform="translate(34.852054,239.57027)"
         id="g184">
        <g
           id="g182">
          <path
             d="m 9.332031,-131.38672 v 68.492189 H 27.0625 c 6.15625,5.601562 12.316406,11.570312 18.660156,18.105469 6.535156,6.34375 14.929688,14.929687 25.195313,25.378906 C 81.371094,-8.957031 87.714844,-2.613281 89.953125,-0.1875 H 113.46875 L 43.671875,-70.171875 108.80469,-131.38672 H 85.847656 L 27.0625,-75.957031 v -55.429689 z m 0,84.54297 V -0.1875 H 27.0625 v -46.65625 z m 0,0"
             id="path180" />
        </g>
      </g>
    </g>
    <g
       id="g960">
      <g
         fill="#7ed957"
         fill-opacity="0.4"
         id="g194"
         transform="rotate(180,248.16839,190.91547)">
        <g
           transform="translate(192.13015,247.8183)"
           id="g192">
          <g
             id="g190">
            <path
               d="m 9.332031,-131.38672 v 68.492189 H 27.0625 c 6.15625,5.601562 12.316406,11.570312 18.660156,18.105469 6.535156,6.34375 14.929688,14.929687 25.195313,25.378906 C 81.371094,-8.957031 87.714844,-2.613281 89.953125,-0.1875 H 113.46875 L 43.671875,-70.171875 108.80469,-131.38672 H 85.847656 L 27.0625,-75.957031 v -55.429689 z m 0,84.54297 V -0.1875 H 27.0625 v -46.65625 z m 0,0"
               id="path188" />
          </g>
        </g>
      </g>
    </g>
    <g
       fill="#7ed957"
       fill-opacity="1"
       id="g202"
       transform="rotate(180,242.13233,187.26668)">
      <g
         transform="translate(183.88212,239.57027)"
         id="g200">
        <g
           id="g198">
          <path
             d="m 9.332031,-131.38672 v 68.492189 H 27.0625 c 6.15625,5.601562 12.316406,11.570312 18.660156,18.105469 6.535156,6.34375 14.929688,14.929687 25.195313,25.378906 C 81.371094,-8.957031 87.714844,-2.613281 89.953125,-0.1875 H 113.46875 L 43.671875,-70.171875 108.80469,-131.38672 H 85.847656 L 27.0625,-75.957031 v -55.429689 z m 0,84.54297 V -0.1875 H 27.0625 v -46.65625 z m 0,0"
             id="path196" />
        </g>
      </g>
    </g>
  </g>
</svg>
