<svg xmlns="http://www.w3.org/2000/svg" width="50" height="50" fill="none" viewBox="0 0 100 100"><path fill="#7ED957" fill-opacity=".4" d="M0 1.69183V53.0133H8.30204C11.1846 57.2106 14.069 61.683 17.0394 66.5798C20.0994 71.3332 24.03 77.7667 28.8367 85.5963C33.7313 93.4289 36.7016 98.1823 37.7497 99.9999H48.7606L16.0791 47.5604L46.5767 1.69183H35.8274L8.30204 43.2255V1.69183H0ZM0 65.0402V99.9999H8.30204V65.0402H0Z"/><path fill="#7ED957" d="M2.30737 0.866455V52.1879H10.6094C13.492 56.3852 16.3764 60.8576 19.3468 65.7544C22.4068 70.5078 26.3374 76.9413 31.1441 84.771C36.0387 92.6035 39.009 97.3569 40.0571 99.1746H51.0679L18.3865 46.735L48.884 0.866455H38.1347L10.6094 42.4001V0.866455H2.30737ZM2.30737 64.2148V99.1746H10.6094V64.2148H2.30737Z"/><path fill="#7ED957" fill-opacity=".4" d="M100 98.3082V46.9867H91.698C88.8154 42.7894 85.931 38.317 82.9606 33.4202C79.9006 28.6668 75.97 22.2333 71.1633 14.4037C66.2687 6.5711 63.2984 1.8177 62.2503 5.19084e-05H51.2394L83.9209 52.4396L53.4233 98.3082L64.1726 98.3082L91.698 56.7745V98.3082H100ZM100 34.9598L100 5.19084e-05H91.698V34.9598H100Z"/><path fill="#7ED957" d="M98.2097 99.0204V47.6989H89.9076C87.025 43.5016 84.1406 39.0292 81.1703 34.1324C78.1103 29.379 74.1796 22.9455 69.3729 15.1159C64.4784 7.28332 61.508 2.52992 60.46 0.712271H49.4491L82.1305 53.1519L51.633 99.0204L62.3823 99.0204L89.9076 57.4867V99.0204H98.2097ZM98.2097 35.672L98.2097 0.712271H89.9076V35.672H98.2097Z"/></svg>